<svg width="48" height="48" viewBox="0 0 48 48" fill="none" xmlns="http://www.w3.org/2000/svg">
	<path d="M30.7989 23.6568C30.3177 23.2156 29.5997 23.0007 28.6032 23.0007H18.9644V35.2879H21.9257V30.9127H28.6025C29.5997 30.9127 30.3177 30.6985 30.7982 30.2572C31.2844 29.8111 31.5303 29.1237 31.5303 28.2151V25.709C31.5311 24.7939 31.2851 24.1023 30.7989 23.6568ZM28.5484 27.727C28.5484 28.1455 28.4518 28.2569 28.4411 28.2668C28.4041 28.303 28.2378 28.3725 27.866 28.3725H21.9264V25.5189H27.866C28.2378 25.5189 28.4041 25.5891 28.4404 25.6231C28.4518 25.6345 28.5484 25.7459 28.5484 26.1651V27.727ZM45.2322 30.4154C45.181 29.4585 44.95 28.7875 44.5299 28.3697C44.0508 27.893 43.2525 27.6625 42.0889 27.6625H35.5088V25.5926H42.4301V26.8389L45.1142 26.0799V25.4444C45.1142 24.9209 44.8739 24.169 44.3785 23.6959C43.8894 23.2277 43.0883 23 41.929 23H35.9147C34.7262 23 33.9194 23.2341 33.4467 23.7186C32.9783 24.1988 32.7508 25.0046 32.7508 26.1856V27.1631C32.7508 28.3442 32.9783 29.1514 33.4467 29.6309C33.9201 30.114 34.7276 30.3495 35.9147 30.3495H42.4728V32.6619H35.1356V31.4496L32.3122 32.1001C32.3122 33.2833 32.5454 34.0912 33.0238 34.5722C33.5377 35.0893 34.3033 35.2389 35.0063 35.2758C35.3723 35.295 35.7384 35.2865 36.1045 35.2865H42.0896C43.2689 35.2865 44.0728 35.0538 44.5455 34.575C45.0154 34.0983 45.2436 33.2883 45.2436 32.1001V31.1482C45.24 30.8637 45.2428 30.4126 45.2322 30.4154ZM13.995 23.0007H6.1852C4.99031 23.0007 4.17784 23.2376 3.70158 23.7242C3.2296 24.208 3 25.0138 3 26.1864V32.1015C3 33.2755 3.2296 34.0813 3.70158 34.5636C4.17784 35.051 4.99031 35.2879 6.1852 35.2879H13.995C15.1729 35.2879 15.9761 35.0559 16.4545 34.5785C16.9279 34.1026 17.1582 33.2918 17.1582 32.1015V26.1864C17.1582 25.0039 16.9279 24.1967 16.4552 23.7171C15.9789 23.2341 15.1743 23.0007 13.995 23.0007ZM14.2289 32.6626H5.95134V25.5926H14.2289V32.6626Z" fill="#FB0A33"/>
	<path d="M9.1253 16.6318C9.18359 16.5921 9.23761 16.5474 9.28737 16.4999C9.53473 16.2559 9.66055 15.9026 9.66055 15.4472V14.6513C9.66055 14.0931 9.51057 13.6732 9.21415 13.4001C8.92058 13.1312 8.48271 13 7.87567 13H2V20.4906H7.46481C8.18275 20.4906 8.71373 20.3629 9.08905 20.1019C9.36769 19.9068 9.69964 19.528 9.69964 18.8272V17.9526C9.69964 17.4795 9.56956 17.095 9.31438 16.8084C9.2568 16.7439 9.19425 16.685 9.1253 16.6318ZM3.80549 14.5676H7.45202C7.71502 14.5676 7.78966 14.6145 7.79037 14.6145C7.7925 14.6166 7.82947 14.6655 7.82947 14.8386V15.5245C7.82947 15.6813 7.79677 15.7444 7.78468 15.7558C7.78397 15.7565 7.71787 15.809 7.45202 15.809H3.80549V14.5676ZM7.88775 18.4186C7.88775 18.7421 7.81952 18.8244 7.8117 18.8322C7.78753 18.8591 7.68304 18.9031 7.45202 18.9031H3.80549V17.3511H7.45202C7.73137 17.3511 7.80103 17.4171 7.80814 17.4256C7.81596 17.4341 7.88775 17.5199 7.88775 17.8483V18.4186ZM22.3111 13L18.1968 20.4906H20.0784L20.9577 18.8081H25.2184L26.0969 20.4906H28.1128L23.9275 13H22.3111ZM21.7808 17.2851L23.0909 14.8038L24.4059 17.2851H21.7808ZM39.9566 16.5971L45.4349 13H42.5681L38.7034 15.6402V13H36.8979V20.4906H38.7034V17.7001L42.8752 20.4906H46L39.9566 16.5971ZM36.0385 14.9422C36.0385 14.2172 35.8992 13.7235 35.6127 13.4341C35.3248 13.1419 34.8337 13 34.1101 13H30.2538C29.5309 13 29.0376 13.1426 28.7455 13.4362C28.454 13.7285 28.3126 14.2215 28.3126 14.9422V18.5484C28.3126 19.2698 28.454 19.7621 28.7455 20.0551C29.0383 20.348 29.5309 20.4906 30.2538 20.4906H34.1101C34.833 20.4906 35.3248 20.3488 35.6127 20.0572C35.8992 19.7671 36.0385 19.2734 36.0385 18.5484L34.233 18.1725V18.8911H30.1117V14.5804H34.233V15.277L36.0385 14.9422ZM12.4377 13H10.633V20.4906H17.6488V18.8904H12.4377V13Z" fill="white"/>
</svg>
