<?xml version="1.0" encoding="utf-8"?>
<svg version="1.1"
     id="MW2CR"
     xmlns="http://www.w3.org/2000/svg" xmlns:xlink="http://www.w3.org/1999/xlink"
     x="0px"
     y="0px"
     width="512px"
     height="512px"
     viewBox="0 0 512 512"
     enable-background="new 0 0 512 512" xml:space="preserve"
>
	<path id="_x32_"
	      fill="#60BA46"
	      d="M372.7,351.2H269.9v-28.6l102.8-60.4v39.5l-25.9,15.8c0,0-3.2,1.8-2,4.7c1.2,2.9,3.9,3,3.9,3h24 M493.5,230.1v-40.6l-48.7-29.3h-55V178h17.3c4.8,0,6.2,1.1,6.2,1.1l20.2,11.8c4.8,2.7,4.8,5.3,4.8,5.3v21.3c0,7-4.3,8.8-4.3,8.8 l-44.3,25.5V292L493.5,230.1z M373.1,178v-17.8h-55.2l-48,28.4v19h54.6v-11.9c0,0,0.3-3.5,5.1-5.6l18.9-10.8c0,0,1.4-1.3,4.8-1.2 H373.1z M389.7,351.2h103.3v-26H389.7V351.2z" />
	<path id="MW"
	      fill="#FFFFFF"
	      d="M185.5,235.4v115.7H156v-73.6l-52.1,58.7l0,0.2c0,0-2.6,3.1-4.1,3.1s-4.1-3.1-4.1-3.1L43.1,272v79.1 H18.5V235.4h24.6l58.9,69.4l57.8-69.4H185.5z M352.7,235.4l-27.6,73.8l-27.6-73.8h-27.8l-27.6,73.8l-27.6-73.8H187l41.4,110.7 l2.1,5.7l23.3,0v0l2.2-5.7l27.7-74.1l27.7,74.1l2.1,5.7l23.3,0v0l2.2-5.7l41.3-110.7H352.7z" />
</svg>
