<?xml version="1.0" encoding="utf-8"?>
<!-- Generator: Adobe Illustrator 22.1.0, SVG Export Plug-In . SVG Version: 6.00 Build 0)  -->
<svg version="1.1" id="Layer_1" xmlns="http://www.w3.org/2000/svg" xmlns:xlink="http://www.w3.org/1999/xlink" x="0px" y="0px"
	 viewBox="0 0 512 512" style="enable-background:new 0 0 512 512;" xml:space="preserve">
<path d="M44.502 5.315H19.498a4.76 4.76 0 0 0-4.745 4.745v43.88a4.759 4.759 0 0 0 4.745 4.745h25.003a4.76 4.76 0 0 0 4.745-4.745V10.06a4.758 4.758 0 0 0-4.744-4.745zm-9.218 50.373h-7.256a2.305 2.305 0 0 1-2.298-2.298 2.305 2.305 0 0 1 2.298-2.298h7.256a2.305 2.305 0 0 1 2.298 2.298 2.304 2.304 0 0 1-2.298 2.298zm9.069-8.204H19.642V10.318h24.711v37.166z"></path>
</svg>
